<svg width="120" height="380" viewBox="0 0 120 380" fill="none" xmlns="http://www.w3.org/2000/svg">
<g clip-path="url(#clip0)">
<path d="M120 0H0V380H120V0Z" fill="#171717"/>
<path d="M34.6283 317.284C34.9466 317.284 35.1941 317.039 35.1941 316.724V309.952C35.1941 309.649 34.9466 309.392 34.6283 309.392C34.3218 309.392 34.0625 309.649 34.0625 309.952V316.724C34.0625 317.039 34.3218 317.284 34.6283 317.284Z" fill="white"/>
<path d="M40.356 317.273C40.6035 317.214 40.7921 316.981 40.7921 316.724V309.952C40.7921 309.649 40.5328 309.392 40.2263 309.392C39.9081 309.392 39.6605 309.649 39.6605 309.952C39.6605 309.952 39.6605 312.276 39.6605 314.272C38.6822 312.264 37.4328 309.707 37.4328 309.707C37.3149 309.474 37.0556 309.345 36.7963 309.403C36.537 309.462 36.3602 309.695 36.3602 309.952V316.724C36.3602 317.039 36.6077 317.284 36.926 317.284C37.2324 317.284 37.4917 317.039 37.4917 316.724C37.4917 316.724 37.4917 314.4 37.4917 312.404C38.4701 314.412 39.7195 316.969 39.7195 316.969C39.8256 317.202 40.0967 317.331 40.356 317.273Z" fill="white"/>
<path d="M45.2865 311.75C45.2865 311.75 45.534 311.493 45.7344 311.307C45.7344 313.034 45.7344 316.724 45.7344 316.724C45.7344 317.039 45.9819 317.284 46.3002 317.284C46.6067 317.284 46.866 317.039 46.866 316.724V309.952C46.866 309.73 46.7245 309.52 46.5124 309.439C46.3002 309.345 46.0644 309.392 45.8994 309.555L44.485 310.956C44.261 311.178 44.261 311.528 44.485 311.75C44.7089 311.972 45.0626 311.972 45.2865 311.75V311.75Z" fill="white"/>
<path d="M73.1985 317.284C73.5168 317.284 73.7643 317.039 73.7643 316.724V309.952C73.7643 309.649 73.5168 309.392 73.1985 309.392C72.8921 309.392 72.6328 309.649 72.6328 309.952V316.724C72.6328 317.039 72.8921 317.284 73.1985 317.284Z" fill="white"/>
<path d="M78.9262 317.273C79.1737 317.214 79.3623 316.981 79.3623 316.724V309.952C79.3623 309.649 79.103 309.392 78.7966 309.392C78.4783 309.392 78.2308 309.649 78.2308 309.952C78.2308 309.952 78.2308 312.276 78.2308 314.272C77.2525 312.264 76.0031 309.707 76.0031 309.707C75.8852 309.474 75.6259 309.345 75.3666 309.403C75.1072 309.462 74.9304 309.695 74.9304 309.952V316.724C74.9304 317.039 75.178 317.284 75.4962 317.284C75.8027 317.284 76.062 317.039 76.062 316.724C76.062 316.724 76.062 314.4 76.062 312.404C77.0403 314.412 78.2897 316.969 78.2897 316.969C78.3958 317.202 78.6669 317.331 78.9262 317.273V317.273Z" fill="white"/>
<path d="M82.9374 311.143C83.2085 311.295 83.5503 311.201 83.7035 310.933C83.8214 310.746 83.9982 310.606 84.2103 310.548C84.4343 310.489 84.6583 310.513 84.8586 310.618C85.0472 310.723 85.1887 310.898 85.2594 311.108C85.3183 311.318 85.2948 311.552 85.2005 311.75L82.7134 316.42C82.6309 316.595 82.6309 316.794 82.737 316.969C82.8431 317.132 83.0199 317.237 83.2202 317.237H85.8605C86.167 317.237 86.4263 316.992 86.4263 316.677C86.4263 316.374 86.167 316.117 85.8605 316.117C85.8605 316.117 84.9294 316.117 84.1514 316.117C84.7526 314.996 86.2024 312.264 86.2024 312.264C86.4381 311.809 86.4852 311.283 86.3438 310.793C86.1906 310.291 85.8605 309.882 85.4008 309.637C84.9412 309.392 84.4107 309.322 83.9157 309.462C83.4088 309.602 82.9845 309.929 82.7252 310.372C82.572 310.641 82.6663 310.98 82.9374 311.143L82.9374 311.143Z" fill="white"/>
<path d="M56.1477 248.888V251.597H54.4504V248.888C54.4504 248.585 54.2029 248.328 53.8846 248.328C53.5781 248.328 53.3188 248.585 53.3188 248.888V255.66C53.3188 255.975 53.5781 256.22 53.8846 256.22C54.2029 256.22 54.4504 255.975 54.4504 255.66V252.718H56.1477V255.66C56.1477 255.975 56.407 256.22 56.7135 256.22C57.0317 256.22 57.2792 255.975 57.2792 255.66V248.888C57.2792 248.585 57.0317 248.328 56.7135 248.328C56.407 248.328 56.1477 248.585 56.1477 248.888Z" fill="white"/>
<path d="M58.4481 248.935V255.66C58.4481 255.975 58.6957 256.22 59.0139 256.22C59.3204 256.22 59.5797 255.975 59.5797 255.66V252.951H60.4283C61.5245 252.951 62.4086 252.076 62.4086 250.99V250.336C62.4086 249.25 61.5245 248.375 60.4283 248.375H59.0139C58.6957 248.375 58.4481 248.632 58.4481 248.935ZM61.277 250.336V250.99C61.277 251.457 60.8998 251.831 60.4283 251.831H59.5797V249.496H60.4283C60.8998 249.496 61.277 249.869 61.277 250.336V250.336Z" fill="white"/>
<path d="M63.6828 256.174C64.001 256.174 64.2486 255.929 64.2486 255.613V252.718H65.8044C66.1227 252.718 66.3702 252.473 66.3702 252.158C66.3702 251.854 66.1227 251.597 65.8044 251.597H64.2486V249.496H66.0402C66.3584 249.496 66.6059 249.25 66.6059 248.935C66.6059 248.632 66.3584 248.375 66.0402 248.375H63.6828C63.3763 248.375 63.117 248.632 63.117 248.935V255.613C63.117 255.929 63.3763 256.174 63.6828 256.174V256.174Z" fill="white"/>
<path d="M7.78086 278.812C8.65309 279.045 9.56069 278.672 10.0086 277.901C10.1736 277.633 10.0793 277.294 9.80821 277.131C9.53711 276.979 9.19529 277.072 9.03027 277.341C8.84168 277.668 8.45271 277.831 8.07553 277.738C7.71013 277.633 7.45082 277.306 7.45082 276.921V272.951C7.45082 272.577 7.71013 272.239 8.07553 272.145C8.45271 272.04 8.84168 272.204 9.03027 272.531C9.19529 272.799 9.53711 272.893 9.80821 272.741C10.0793 272.577 10.1736 272.239 10.0086 271.97C9.56069 271.2 8.65309 270.826 7.78086 271.06C6.92041 271.282 6.31927 272.064 6.31927 272.951V276.921C6.31927 277.808 6.92041 278.59 7.78086 278.812V278.812Z" fill="white"/>
<path d="M12.4306 278.473C12.5013 278.719 12.7252 278.882 12.9846 278.882C13.2321 278.882 13.456 278.719 13.5268 278.473L15.4127 271.702C15.4952 271.398 15.3184 271.095 15.0119 271.013C14.7172 270.931 14.399 271.106 14.3165 271.398C14.3165 271.398 13.5268 274.235 12.9846 276.22C12.4306 274.235 11.6408 271.398 11.6408 271.398C11.5583 271.106 11.2401 270.931 10.9454 271.013C10.639 271.095 10.4622 271.398 10.5447 271.702L12.4306 278.473Z" fill="white"/>
<path d="M18.9382 278.882C19.2564 278.882 19.5039 278.637 19.5039 278.322V271.55C19.5039 271.247 19.2564 270.99 18.9382 270.99C18.6317 270.99 18.3724 271.247 18.3724 271.55V278.322C18.3724 278.637 18.6317 278.882 18.9382 278.882Z" fill="white"/>
<path d="M24.6658 278.87C24.9134 278.812 25.102 278.579 25.102 278.322V271.55C25.102 271.247 24.8426 270.99 24.5362 270.99C24.2179 270.99 23.9704 271.247 23.9704 271.55C23.9704 271.55 23.9704 273.873 23.9704 275.87C22.9921 273.862 21.7427 271.305 21.7427 271.305C21.6248 271.071 21.3655 270.943 21.1062 271.001C20.8469 271.06 20.6701 271.293 20.6701 271.55V278.322C20.6701 278.637 20.9176 278.882 21.2358 278.882C21.5423 278.882 21.8016 278.637 21.8016 278.322C21.8016 278.322 21.8016 275.998 21.8016 274.002C22.7799 276.01 24.0293 278.567 24.0293 278.567C24.1354 278.8 24.4065 278.929 24.6658 278.87V278.87Z" fill="white"/>
<path d="M29.5964 273.348C29.5964 273.348 29.8439 273.091 30.0443 272.904C30.0443 274.632 30.0443 278.322 30.0443 278.322C30.0443 278.637 30.2918 278.882 30.61 278.882C30.9165 278.882 31.1758 278.637 31.1758 278.322V271.55C31.1758 271.328 31.0344 271.118 30.8222 271.036C30.61 270.943 30.3743 270.99 30.2093 271.153L28.7948 272.554C28.5709 272.776 28.5709 273.126 28.7948 273.348C29.0188 273.57 29.3724 273.57 29.5964 273.348V273.348Z" fill="white"/>
<path d="M89.0361 278.812C89.9084 279.045 90.816 278.672 91.2639 277.901C91.4289 277.633 91.3346 277.294 91.0635 277.131C90.7924 276.979 90.4506 277.072 90.2855 277.341C90.097 277.668 89.708 277.831 89.3308 277.738C88.9654 277.633 88.7061 277.306 88.7061 276.921V272.951C88.7061 272.577 88.9654 272.239 89.3308 272.145C89.708 272.04 90.097 272.204 90.2855 272.531C90.4506 272.799 90.7924 272.893 91.0635 272.741C91.3346 272.577 91.4289 272.239 91.2639 271.97C90.816 271.2 89.9084 270.826 89.0361 271.06C88.1757 271.282 87.5746 272.064 87.5746 272.951V276.921C87.5746 277.808 88.1757 278.59 89.0361 278.812V278.812Z" fill="white"/>
<path d="M93.6858 278.473C93.7565 278.719 93.9805 278.882 94.2398 278.882C94.4874 278.882 94.7113 278.719 94.782 278.473L96.6679 271.702C96.7505 271.398 96.5736 271.095 96.2672 271.013C95.9725 270.931 95.6543 271.106 95.5718 271.398C95.5718 271.398 94.782 274.235 94.2398 276.22C93.6858 274.235 92.8961 271.398 92.8961 271.398C92.8136 271.106 92.4954 270.931 92.2007 271.013C91.8942 271.095 91.7174 271.398 91.7999 271.702L93.6858 278.473Z" fill="white"/>
<path d="M100.193 278.882C100.512 278.882 100.759 278.637 100.759 278.322V271.55C100.759 271.247 100.512 270.99 100.193 270.99C99.887 270.99 99.6277 271.247 99.6277 271.55V278.322C99.6277 278.637 99.887 278.882 100.193 278.882Z" fill="white"/>
<path d="M105.921 278.87C106.169 278.812 106.357 278.579 106.357 278.322V271.55C106.357 271.247 106.098 270.99 105.791 270.99C105.473 270.99 105.226 271.247 105.226 271.55C105.226 271.55 105.226 273.873 105.226 275.87C104.247 273.862 102.998 271.305 102.998 271.305C102.88 271.071 102.621 270.943 102.361 271.001C102.102 271.06 101.925 271.293 101.925 271.55V278.322C101.925 278.637 102.173 278.882 102.491 278.882C102.798 278.882 103.057 278.637 103.057 278.322C103.057 278.322 103.057 275.998 103.057 274.002C104.035 276.01 105.285 278.567 105.285 278.567C105.391 278.8 105.662 278.929 105.921 278.87V278.87Z" fill="white"/>
<path d="M109.932 272.741C110.203 272.893 110.545 272.799 110.698 272.531C110.816 272.344 110.993 272.204 111.205 272.145C111.429 272.087 111.653 272.11 111.854 272.215C112.042 272.321 112.184 272.496 112.254 272.706C112.313 272.916 112.29 273.15 112.195 273.348L109.708 278.018C109.626 278.193 109.626 278.392 109.732 278.567C109.838 278.73 110.015 278.835 110.215 278.835H112.855C113.162 278.835 113.421 278.59 113.421 278.275C113.421 277.971 113.162 277.714 112.855 277.714C112.855 277.714 111.924 277.714 111.146 277.714C111.747 276.594 113.197 273.862 113.197 273.862C113.433 273.406 113.48 272.881 113.339 272.391C113.185 271.889 112.855 271.48 112.396 271.235C111.936 270.99 111.406 270.92 110.911 271.06C110.404 271.2 109.979 271.527 109.72 271.97C109.567 272.239 109.661 272.577 109.932 272.741L109.932 272.741Z" fill="white"/>
<path d="M13.7648 352.904C14.0712 352.904 14.3305 352.658 14.3305 352.343C14.3305 352.343 14.3305 350.067 14.3305 348.082C14.7195 348.911 15.132 349.775 15.132 349.775C15.2263 349.973 15.4267 350.102 15.6507 350.102C15.8628 350.102 16.0632 349.973 16.1575 349.775C16.1575 349.775 16.5701 348.911 16.9708 348.082C16.9708 350.067 16.9708 352.343 16.9708 352.343C16.9708 352.658 17.2183 352.904 17.5366 352.904C17.843 352.904 18.1024 352.658 18.1024 352.343V345.572C18.1024 345.315 17.9138 345.081 17.6545 345.023C17.3951 344.965 17.1358 345.093 17.018 345.338C17.018 345.338 16.1929 347.078 15.6507 348.222C15.1085 347.078 14.2716 345.338 14.2716 345.338C14.1655 345.093 13.8944 344.965 13.6351 345.023C13.3758 345.081 13.199 345.315 13.199 345.572V352.343C13.199 352.658 13.4465 352.904 13.7648 352.904V352.904Z" fill="white"/>
<path d="M19.8379 352.904C20.1562 352.904 20.4037 352.658 20.4037 352.343V345.572C20.4037 345.268 20.1562 345.011 19.8379 345.011C19.5315 345.011 19.2722 345.268 19.2722 345.572V352.343C19.2722 352.658 19.5315 352.904 19.8379 352.904Z" fill="white"/>
<path d="M21.4166 352.845C21.6995 352.985 22.0413 352.869 22.1828 352.6L23.444 350.09L24.7052 352.6C24.8466 352.869 25.1884 352.985 25.4595 352.845C25.7424 352.705 25.8603 352.367 25.7188 352.098L24.0805 348.841L25.601 345.829C25.7424 345.548 25.6245 345.21 25.3417 345.07C25.0706 344.93 24.7287 345.046 24.5873 345.326L23.444 347.591L22.3006 345.326C22.1592 345.046 21.8174 344.93 21.5345 345.07C21.2634 345.21 21.1455 345.548 21.2869 345.829L22.8075 348.841L21.1691 352.098C21.0276 352.367 21.1455 352.705 21.4166 352.845Z" fill="white"/>
<path d="M92.6587 345.023C92.364 345.105 92.1754 345.408 92.2462 345.7L93.8963 352.472C93.9553 352.729 94.191 352.904 94.4503 352.904C94.7096 352.904 94.9336 352.729 94.9925 352.472C94.9925 352.472 95.6054 349.962 96.1005 347.965C96.5838 349.962 97.1967 352.472 97.1967 352.472C97.2556 352.729 97.4914 352.904 97.7507 352.904C98.01 352.904 98.2339 352.729 98.2929 352.472L99.943 345.7C100.026 345.408 99.837 345.105 99.5305 345.023C99.224 344.953 98.9176 345.14 98.8468 345.443C98.8468 345.443 98.2339 347.953 97.7507 349.95C97.2556 347.953 96.6427 345.443 96.6427 345.443C96.5838 345.186 96.3598 345.011 96.1005 345.011C95.8412 345.011 95.6054 345.186 95.5465 345.443C95.5465 345.443 94.9336 347.953 94.4503 349.95C93.9553 347.953 93.3423 345.443 93.3423 345.443C93.2716 345.14 92.9652 344.953 92.6587 345.023V345.023Z" fill="white"/>
<path d="M100.768 345.618V352.297C100.768 352.612 101.027 352.857 101.334 352.857H103.691C104.009 352.857 104.257 352.612 104.257 352.297C104.257 351.993 104.009 351.736 103.691 351.736H101.899V349.401H103.455C103.774 349.401 104.021 349.156 104.021 348.841C104.021 348.537 103.774 348.28 103.455 348.28H101.899V346.179H103.691C104.009 346.179 104.257 345.934 104.257 345.618C104.257 345.315 104.009 345.058 103.691 345.058H101.334C101.027 345.058 100.768 345.315 100.768 345.618V345.618Z" fill="white"/>
<path d="M105.14 345.058C104.833 345.058 104.574 345.315 104.574 345.618C104.574 345.934 104.833 346.179 105.14 346.179H106.106V352.343C106.106 352.658 106.366 352.904 106.672 352.904C106.99 352.904 107.238 352.658 107.238 352.343V346.179H108.204C108.523 346.179 108.77 345.934 108.77 345.618C108.77 345.315 108.523 345.058 108.204 345.058H105.14Z" fill="white"/>
<path d="M46.1854 8.97507C46.0032 9.16952 45.7683 9.33271 45.4808 9.46466C45.2004 9.60355 44.9024 9.68688 44.5869 9.71466C44.4187 9.72854 44.2294 9.72854 44.0191 9.71466C43.8157 9.70077 43.6159 9.67646 43.4196 9.64174C43.2303 9.61396 43.0551 9.57924 42.8938 9.53757C42.7396 9.50285 42.6274 9.46813 42.5573 9.43341C42.4521 9.38479 42.389 9.3466 42.368 9.31882C42.3469 9.29799 42.3434 9.24938 42.3575 9.17299L42.4311 8.40216C42.4381 8.3466 42.4556 8.31188 42.4837 8.29799C42.5117 8.2841 42.5643 8.29452 42.6414 8.32924C42.7255 8.36396 42.8447 8.40563 42.999 8.45424C43.1532 8.4959 43.325 8.5341 43.5143 8.56882C43.7036 8.59659 43.8929 8.61396 44.0822 8.62091C44.2785 8.62785 44.4537 8.61396 44.608 8.57924C44.8113 8.53063 44.9761 8.46813 45.1023 8.39174C45.2285 8.30841 45.3266 8.21466 45.3967 8.11049C45.4738 7.99938 45.5264 7.88133 45.5545 7.75633C45.5825 7.62438 45.5965 7.48897 45.5965 7.35008C45.5965 7.21813 45.5089 7.03758 45.3336 6.80841C45.1654 6.57924 44.92 6.37091 44.5975 6.18341C44.2048 5.95424 43.8648 5.74244 43.5774 5.54799C43.2899 5.3466 43.0515 5.14869 42.8623 4.95424C42.68 4.7598 42.5433 4.55841 42.4521 4.35008C42.361 4.14174 42.3154 3.91258 42.3154 3.66258C42.3154 3.37785 42.375 3.10702 42.4942 2.85008C42.6204 2.58619 42.7886 2.35702 42.999 2.16258C43.2163 1.96813 43.4722 1.81536 43.7667 1.70424C44.0681 1.58619 44.3977 1.52716 44.7552 1.52716C45.1198 1.52716 45.4177 1.55147 45.6491 1.60008C45.8875 1.64174 46.0908 1.69383 46.2591 1.75633C46.3362 1.7841 46.3818 1.81535 46.3958 1.85008C46.4168 1.87785 46.4203 1.91605 46.4063 1.96466L46.2696 2.63133C46.2556 2.70772 46.231 2.7598 46.196 2.78758C46.1679 2.81535 46.1153 2.81535 46.0382 2.78758C45.933 2.75285 45.8174 2.7216 45.6912 2.69383C45.565 2.6591 45.4353 2.63133 45.3021 2.61049C45.1689 2.58966 45.0392 2.57577 44.913 2.56883C44.7938 2.56188 44.6851 2.56535 44.5869 2.57924C44.1943 2.64174 43.9174 2.77022 43.7561 2.96466C43.6019 3.15216 43.5248 3.39174 43.5248 3.68341C43.5248 3.85702 43.6159 4.05147 43.7982 4.26674C43.9805 4.47508 44.2469 4.68341 44.5975 4.89174C45.0391 5.15563 45.4002 5.39174 45.6807 5.60008C45.9681 5.80841 46.1925 6.0098 46.3537 6.20424C46.522 6.39174 46.6376 6.58271 46.7007 6.77716C46.7709 6.9716 46.8059 7.18341 46.8059 7.41257C46.8059 8.02369 46.5991 8.54452 46.1854 8.97507H46.1854Z" fill="white"/>
<path d="M49.5048 6.35007V9.40216C49.5048 9.49244 49.4592 9.53757 49.3681 9.53757H48.4321C48.348 9.53757 48.3059 9.49244 48.3059 9.40216V1.80841C48.3059 1.77369 48.3165 1.74591 48.3375 1.72508C48.3655 1.6973 48.3971 1.68341 48.4321 1.68341H50.5565C51.3347 1.68341 51.9481 1.87091 52.3968 2.24591C52.8525 2.62091 53.0804 3.20424 53.0804 3.99591C53.0804 4.37785 53.0138 4.71813 52.8806 5.01674C52.7544 5.30841 52.5721 5.55494 52.3337 5.75633C52.1024 5.95077 51.8254 6.10008 51.5029 6.20424C51.1874 6.30146 50.8404 6.35008 50.4618 6.35008L49.5048 6.35007ZM49.5048 2.77716V5.26674H50.3566C50.8264 5.26674 51.198 5.16952 51.4714 4.97508C51.7448 4.77369 51.8815 4.44383 51.8815 3.98549C51.8815 3.58966 51.7729 3.29105 51.5555 3.08966C51.3382 2.88133 51.0542 2.77716 50.7037 2.77716H49.5048Z" fill="white"/>
<path d="M58.5793 9.53757C58.5022 9.53757 58.4461 9.53063 58.411 9.51674C58.383 9.5098 58.3514 9.48202 58.3164 9.43341L56.7074 6.35008H55.5085V9.40216C55.5085 9.49244 55.4629 9.53757 55.3718 9.53757H54.4358C54.3517 9.53757 54.3096 9.49244 54.3096 9.40216V1.80841C54.3096 1.77369 54.3201 1.74591 54.3412 1.72508C54.3692 1.6973 54.4008 1.68341 54.4358 1.68341H56.5601C57.3383 1.68341 57.9553 1.87091 58.411 2.24591C58.8667 2.62091 59.0946 3.20424 59.0946 3.99591C59.0946 4.50285 58.9824 4.93341 58.7581 5.28758C58.5337 5.6348 58.2252 5.89869 57.8326 6.07924L59.5889 9.39174C59.6449 9.48896 59.6029 9.53757 59.4627 9.53757L58.5793 9.53757ZM55.5085 2.77716V5.26674H56.3708C56.8336 5.26674 57.2016 5.16952 57.4751 4.97508C57.7485 4.77369 57.8852 4.44383 57.8852 3.98549C57.8852 3.58966 57.7765 3.29105 57.5592 3.08966C57.3489 2.88133 57.0649 2.77716 56.7074 2.77716H55.5085Z" fill="white"/>
<path d="M61.7743 9.40216C61.7743 9.49244 61.7287 9.53757 61.6376 9.53757H60.6806C60.5894 9.53757 60.5439 9.49244 60.5439 9.40216V1.81883C60.5439 1.72855 60.5894 1.68341 60.6806 1.68341H61.6376C61.7287 1.68341 61.7743 1.72855 61.7743 1.81883V9.40216Z" fill="white"/>
<path d="M67.9359 9.53756C67.8798 9.53756 67.8377 9.52715 67.8097 9.50632C67.7816 9.48549 67.7466 9.44035 67.7045 9.3709L64.4023 3.7459V9.3709C64.4023 9.44034 64.3918 9.48548 64.3708 9.50631C64.3498 9.52714 64.3042 9.53756 64.2341 9.53756H63.3612C63.3051 9.53756 63.2631 9.52714 63.235 9.50631C63.207 9.48548 63.193 9.44034 63.193 9.3709V1.86048C63.193 1.77715 63.207 1.72507 63.235 1.70423C63.2631 1.67646 63.3156 1.66257 63.3928 1.66257H64.3603C64.4164 1.66257 64.4584 1.67298 64.4865 1.69382C64.5145 1.70771 64.5496 1.75284 64.5916 1.82923L67.8938 7.44381V1.82923C67.8938 1.75979 67.9043 1.71465 67.9253 1.69382C67.9464 1.67298 67.992 1.66257 68.0621 1.66257H68.9349C69.005 1.66257 69.0471 1.67298 69.0611 1.69382C69.0822 1.71465 69.0927 1.75979 69.0927 1.82923V9.33965C69.0927 9.42298 69.0787 9.47506 69.0506 9.4959C69.0296 9.52367 68.9805 9.53756 68.9034 9.53756L67.9359 9.53756Z" fill="white"/>
<path d="M77.025 9.29797C76.8988 9.36047 76.7445 9.41256 76.5622 9.45422C76.38 9.50283 76.1801 9.5445 75.9628 9.57922C75.7525 9.61395 75.5351 9.63825 75.3108 9.65214C75.0934 9.67297 74.8866 9.68339 74.6903 9.68339C74.1084 9.68339 73.5686 9.59311 73.0708 9.41255C72.58 9.232 72.1559 8.96811 71.7983 8.62089C71.4407 8.27367 71.1603 7.84658 70.957 7.33964C70.7537 6.83269 70.652 6.2563 70.652 5.61047C70.652 5.02019 70.7467 4.47853 70.936 3.98547C71.1252 3.48547 71.3952 3.05492 71.7457 2.69381C72.0963 2.3327 72.5204 2.05145 73.0182 1.85006C73.516 1.64867 74.0769 1.54797 74.7008 1.54797C75.1215 1.54797 75.4966 1.57228 75.8261 1.62089C76.1556 1.66256 76.4676 1.72853 76.762 1.81881C76.8392 1.83964 76.8847 1.86395 76.8988 1.89172C76.9128 1.91256 76.9163 1.93686 76.9093 1.96464L76.7831 2.85006C76.7761 2.89867 76.7585 2.93339 76.7305 2.95422C76.7025 2.97506 76.6499 2.97158 76.5728 2.94381C76.2432 2.83964 75.9313 2.76672 75.6368 2.72506C75.3423 2.67644 75.0268 2.65214 74.6903 2.65214C74.2697 2.65214 73.8876 2.72506 73.544 2.87089C73.2005 3.00978 72.906 3.21117 72.6606 3.47506C72.4153 3.732 72.2225 4.04103 72.0822 4.40214C71.949 4.76325 71.8824 5.16603 71.8824 5.61047C71.8824 6.08964 71.949 6.51672 72.0822 6.89172C72.2225 7.25978 72.4153 7.57228 72.6606 7.82922C72.913 8.07922 73.211 8.27019 73.5545 8.40214C73.8981 8.52714 74.2767 8.58964 74.6903 8.58964C75.0058 8.58964 75.2792 8.57575 75.5106 8.54797C75.742 8.52019 75.9137 8.47853 76.0259 8.42297V6.32922H74.2907C74.2486 6.32922 74.2136 6.31881 74.1855 6.29797C74.1645 6.2702 74.154 6.23895 74.154 6.20422V5.37089C74.154 5.32922 74.168 5.2945 74.196 5.26672C74.2311 5.23895 74.2662 5.22506 74.3012 5.22506H76.9934C77.0986 5.22506 77.1652 5.24242 77.1932 5.27714C77.2213 5.31186 77.2353 5.38131 77.2353 5.48547V8.92297C77.2353 9.02714 77.2143 9.107 77.1722 9.16256C77.1301 9.21811 77.081 9.26325 77.025 9.29797H77.025Z" fill="white"/>
<path d="M46.0477 18.6001C45.9706 18.6001 45.9145 18.5931 45.8794 18.5792C45.8514 18.5723 45.8198 18.5445 45.7848 18.4959L44.1757 15.4126H42.9769V18.4647C42.9769 18.5549 42.9313 18.6001 42.8402 18.6001H41.9042C41.8201 18.6001 41.778 18.5549 41.778 18.4647V10.8709C41.778 10.8362 41.7885 10.8084 41.8095 10.7876C41.8376 10.7598 41.8691 10.7459 41.9042 10.7459H44.0285C44.8067 10.7459 45.4237 10.9334 45.8794 11.3084C46.3351 11.6834 46.563 12.2667 46.563 13.0584C46.563 13.5654 46.4508 13.9959 46.2264 14.3501C46.0021 14.6973 45.6936 14.9612 45.301 15.1417L47.0572 18.4542C47.1133 18.5515 47.0713 18.6001 46.931 18.6001L46.0477 18.6001ZM42.9769 11.8397V14.3292H43.8392C44.3019 14.3292 44.67 14.232 44.9434 14.0376C45.2169 13.8362 45.3536 13.5063 45.3536 13.048C45.3536 12.6522 45.2449 12.3535 45.0276 12.1522C44.8172 11.9438 44.5333 11.8397 44.1757 11.8397H42.9769Z" fill="white"/>
<path d="M48.5801 18.6105C48.4399 18.6105 48.3558 18.5966 48.3277 18.5688C48.2997 18.548 48.2856 18.4612 48.2856 18.3084V11.0272C48.2856 10.8883 48.2962 10.8084 48.3172 10.7876C48.3452 10.7598 48.4259 10.7459 48.5591 10.7459H52.2924C52.3695 10.7459 52.4151 10.7598 52.4291 10.7876C52.4431 10.8084 52.4501 10.8501 52.4501 10.9126V11.6834C52.4501 11.7529 52.4396 11.8015 52.4186 11.8292C52.3976 11.8501 52.3555 11.8605 52.2924 11.8605H49.4425V13.9855H52.1557C52.2609 13.9855 52.3134 14.041 52.3134 14.1522V14.9334C52.3134 15.0515 52.2609 15.1105 52.1557 15.1105H49.4425V17.4855H52.4186C52.5168 17.4855 52.5658 17.5445 52.5658 17.6626V18.4438C52.5658 18.5549 52.5168 18.6105 52.4186 18.6105L48.5801 18.6105Z" fill="white"/>
<path d="M57.4443 18.4855C57.4232 18.541 57.4022 18.5723 57.3812 18.5792C57.3601 18.5931 57.3251 18.6001 57.276 18.6001H56.3611C56.312 18.6001 56.2769 18.5931 56.2559 18.5792C56.2349 18.5723 56.2138 18.541 56.1928 18.4855L53.3218 10.8917C53.3078 10.8431 53.3078 10.8084 53.3218 10.7876C53.3358 10.7598 53.3919 10.7459 53.4901 10.7459H54.3945C54.4506 10.7459 54.4891 10.7529 54.5102 10.7667C54.5312 10.7737 54.5487 10.8015 54.5627 10.8501L56.8028 16.9126L59.0638 10.8501C59.0848 10.8015 59.1058 10.7737 59.1269 10.7667C59.1479 10.7529 59.1865 10.7459 59.2426 10.7459H60.147C60.2381 10.7459 60.2907 10.7598 60.3047 10.7876C60.3258 10.8084 60.3293 10.8431 60.3152 10.8917L57.4443 18.4855Z" fill="white"/>
<path d="M61.5533 18.6105C61.4131 18.6105 61.329 18.5966 61.3009 18.5688C61.2729 18.548 61.2589 18.4612 61.2589 18.3084V11.0272C61.2589 10.8883 61.2694 10.8084 61.2904 10.7876C61.3185 10.7598 61.3991 10.7459 61.5323 10.7459H65.2656C65.3428 10.7459 65.3883 10.7598 65.4023 10.7876C65.4164 10.8084 65.4234 10.8501 65.4234 10.9126V11.6834C65.4234 11.7529 65.4129 11.8015 65.3918 11.8292C65.3708 11.8501 65.3287 11.8605 65.2656 11.8605H62.4157V13.9855H65.1289C65.2341 13.9855 65.2867 14.041 65.2867 14.1522V14.9334C65.2867 15.0515 65.2341 15.1105 65.1289 15.1105H62.4157V17.4855H65.3918C65.49 17.4855 65.5391 17.5445 65.5391 17.6626V18.4438C65.5391 18.5549 65.49 18.6105 65.3918 18.6105L61.5533 18.6105Z" fill="white"/>
<path d="M71.5217 18.6001C71.4446 18.6001 71.3885 18.5931 71.3535 18.5792C71.3254 18.5723 71.2939 18.5445 71.2588 18.4959L69.6498 15.4126H68.4509V18.4647C68.4509 18.5549 68.4053 18.6001 68.3142 18.6001H67.3782C67.2941 18.6001 67.252 18.5549 67.252 18.4647V10.8709C67.252 10.8362 67.2626 10.8084 67.2836 10.7876C67.3116 10.7598 67.3432 10.7459 67.3782 10.7459H69.5026C70.2808 10.7459 70.8977 10.9334 71.3534 11.3084C71.8092 11.6834 72.037 12.2667 72.037 13.0584C72.037 13.5654 71.9248 13.9959 71.7005 14.3501C71.4761 14.6973 71.1677 14.9612 70.775 15.1417L72.5313 18.4542C72.5874 18.5515 72.5453 18.6001 72.4051 18.6001L71.5217 18.6001ZM68.4509 11.8397V14.3292H69.3133C69.776 14.3292 70.1441 14.232 70.4175 14.0376C70.6909 13.8362 70.8276 13.5063 70.8276 13.048C70.8276 12.6522 70.719 12.3535 70.5016 12.1522C70.2913 11.9438 70.0074 11.8397 69.6498 11.8397H68.4509Z" fill="white"/>
<path d="M73.8123 18.6001C73.7281 18.6001 73.6861 18.5654 73.6861 18.4959V10.8917C73.6861 10.7945 73.7281 10.7459 73.8123 10.7459H75.6316C76.4309 10.7459 77.0513 10.9091 77.493 11.2355C77.9417 11.5619 78.1661 12.0619 78.1661 12.7355C78.1661 13.1522 78.0784 13.5098 77.9032 13.8084C77.7349 14.1001 77.493 14.3292 77.1775 14.4959C77.3809 14.5723 77.5561 14.673 77.7034 14.798C77.8576 14.923 77.9838 15.0654 78.0819 15.2251C78.1871 15.3848 78.2642 15.5549 78.3133 15.7355C78.3624 15.9091 78.3869 16.0827 78.3869 16.2563C78.3869 17.041 78.1275 17.6279 77.6087 18.0167C77.0899 18.4056 76.3397 18.6001 75.3582 18.6001H73.8123ZM74.8849 11.8501V13.9647H75.4528C76.0067 13.9647 76.3993 13.8605 76.6307 13.6522C76.862 13.4369 76.9777 13.1626 76.9777 12.8292C76.9777 12.5376 76.8761 12.3015 76.6727 12.1209C76.4694 11.9404 76.1224 11.8501 75.6316 11.8501H74.8849ZM74.8639 15.0897V17.4855H75.3792C76.0523 17.4855 76.522 17.3813 76.7884 17.173C77.0619 16.9577 77.1986 16.666 77.1986 16.298C77.1986 15.923 77.0513 15.6279 76.7569 15.4126C76.4624 15.1973 75.9646 15.0897 75.2635 15.0897H74.8639Z" fill="white"/>
<path d="M36.0693 366.838V375.333H44.8981V368.351H38.9665V366.897L36.0693 366.838ZM38.9665 370.407H42.0985V371.473H41.6289V370.716H40.8649V371.531H40.7095L39.4163 370.659V371.492H38.9665V370.407ZM41.5892 372.17H42.1184V373.179H38.9467V372.21H39.4163V373.025L40.7293 372.19H40.9244V372.966H41.5892V372.17Z" fill="white"/>
<path d="M49.5189 370.426H45.9949V368.351H53.1603V370.135L51.4179 371.88L53.1603 373.626L53.1212 375.371H45.9949V373.18H49.421L48.0897 371.88L49.5189 370.426Z" fill="white"/>
<path d="M54.2371 375.351H56.743V373.335H57.8394L59.3468 371.88L57.8589 370.406H61.4221V368.351H54.2567V370.116L55.9403 371.822H54.2371V375.351Z" fill="white"/>
<path d="M64.221 368.332L60.7764 371.318V375.37L63.2619 375.351V374.285H65.4943V375.37H67.9417V368.332L64.221 368.332ZM65.4166 370.407V372.133H63.3412L65.4166 370.407Z" fill="white"/>
<path d="M68.9986 368.351H76.1836V371.24H73.6777V370.426H71.485V373.18H76.1836V375.39H68.9986V368.351Z" fill="white"/>
<path d="M79.5883 368.361V368.94L77.2021 368.953V374.731H79.5701V375.37H81.9977V374.731H84.3971V368.94H82.0043V368.361H79.5883ZM79.7074 370.756H81.8869V372.875H79.7074V370.756Z" fill="white"/>
<path d="M25.9465 101.172C25.6283 101.172 25.3808 101.429 25.3808 101.732V108.41C25.3808 108.725 25.6283 108.971 25.9465 108.971H27.361C28.4572 108.971 29.3412 108.095 29.3412 107.009V103.133C29.3412 102.047 28.4572 101.172 27.361 101.172H25.9465ZM28.2096 103.133V107.009C28.2096 107.476 27.8325 107.85 27.361 107.85H26.5123V102.292H27.361C27.8325 102.292 28.2096 102.666 28.2096 103.133V103.133Z" fill="white"/>
<path d="M34.6607 103.787V103.133C34.6607 102.047 33.7767 101.172 32.6805 101.172H31.2661C30.9596 101.172 30.7003 101.429 30.7003 101.732V108.457C30.7003 108.772 30.9596 109.017 31.2661 109.017C31.5843 109.017 31.8318 108.772 31.8318 108.457V105.748H32.4683L33.5645 108.655C33.6824 108.947 34.0006 109.087 34.2953 108.982C34.59 108.877 34.7432 108.55 34.6253 108.258L33.5999 105.526C34.2364 105.2 34.6607 104.546 34.6607 103.787V103.787ZM31.8318 102.292H32.6805C33.152 102.292 33.5292 102.666 33.5292 103.133V103.787C33.5292 104.254 33.152 104.627 32.6805 104.627H31.8318V102.292Z" fill="white"/>
<path d="M37.4077 109.017C37.7142 109.017 37.9735 108.772 37.9735 108.457V105.083L39.5647 101.942C39.7062 101.662 39.5883 101.323 39.3054 101.183C39.0343 101.043 38.6925 101.16 38.551 101.44C38.551 101.44 37.891 102.736 37.4077 103.705C36.9244 102.736 36.2644 101.44 36.2644 101.44C36.1229 101.16 35.7811 101.043 35.51 101.183C35.2271 101.323 35.1093 101.662 35.2507 101.942L36.8419 105.083V108.457C36.8419 108.772 37.0895 109.017 37.4077 109.017V109.017Z" fill="white"/>
<path d="M27.4613 114.909C27.1865 114.558 26.9696 114.171 26.825 113.748C26.6876 113.34 26.6153 112.91 26.6153 112.474C26.6153 112.037 26.6876 111.614 26.825 111.199C26.9696 110.776 27.1865 110.389 27.4613 110.038C27.5842 109.888 27.5553 109.673 27.4035 109.551C27.2516 109.437 27.0347 109.465 26.919 109.609C26.5936 110.024 26.3405 110.482 26.1669 110.977C26.0006 111.464 25.9211 111.965 25.9211 112.474C25.9211 112.982 26.0006 113.484 26.1669 113.971C26.3405 114.465 26.5936 114.923 26.919 115.339C27.0347 115.489 27.2516 115.511 27.4035 115.396C27.5553 115.274 27.5842 115.059 27.4613 114.909V114.909Z" fill="white"/>
<path d="M28.2589 114.894C28.4541 114.894 28.6059 114.744 28.6059 114.551V110.396C28.6059 110.21 28.4541 110.053 28.2589 110.053C28.0708 110.053 27.9118 110.21 27.9118 110.396V114.551C27.9118 114.744 28.0708 114.894 28.2589 114.894Z" fill="white"/>
<path d="M31.7727 114.887C31.9245 114.852 32.0402 114.708 32.0402 114.551V110.396C32.0402 110.21 31.8812 110.053 31.6931 110.053C31.4979 110.053 31.346 110.21 31.346 110.396C31.346 110.396 31.346 111.822 31.346 113.047C30.7459 111.815 29.9794 110.246 29.9794 110.246C29.9071 110.103 29.748 110.024 29.5889 110.06C29.4298 110.096 29.3213 110.239 29.3213 110.396V114.551C29.3213 114.744 29.4732 114.895 29.6684 114.895C29.8564 114.895 30.0155 114.744 30.0155 114.551C30.0155 114.551 30.0155 113.125 30.0155 111.901C30.6157 113.133 31.3822 114.701 31.3822 114.701C31.4473 114.844 31.6136 114.923 31.7727 114.887V114.887Z" fill="white"/>
<path d="M34.7975 111.499C34.7975 111.499 34.9493 111.342 35.0723 111.227C35.0723 112.287 35.0723 114.551 35.0723 114.551C35.0723 114.744 35.2241 114.894 35.4194 114.894C35.6074 114.894 35.7665 114.744 35.7665 114.551V110.396C35.7665 110.26 35.6797 110.131 35.5495 110.081C35.4194 110.024 35.2747 110.053 35.1735 110.153L34.3058 111.012C34.1684 111.148 34.1684 111.363 34.3058 111.499C34.4432 111.636 34.6601 111.636 34.7975 111.499V111.499Z" fill="white"/>
<path d="M38.3677 112.402C38.3677 111.893 38.2809 111.392 38.1146 110.905C37.9483 110.411 37.6952 109.952 37.3698 109.537C37.2541 109.394 37.0372 109.365 36.8853 109.48C36.7335 109.601 36.7045 109.816 36.8203 109.967C37.1023 110.318 37.3192 110.704 37.4638 111.127C37.6012 111.542 37.6735 111.965 37.6735 112.402C37.6735 112.839 37.6012 113.269 37.4638 113.677C37.3192 114.099 37.1023 114.486 36.8203 114.837C36.7046 114.988 36.7335 115.202 36.8853 115.324C37.0372 115.439 37.2541 115.417 37.3698 115.267C37.6952 114.851 37.9483 114.393 38.1146 113.899C38.2809 113.412 38.3677 112.91 38.3677 112.402V112.402Z" fill="white"/>
<path d="M48.3487 360.604C48.6551 360.604 48.9144 360.359 48.9144 360.044C48.9144 360.044 48.9144 357.767 48.9144 355.782C49.3034 356.611 49.7159 357.475 49.7159 357.475C49.8102 357.674 50.0106 357.802 50.2346 357.802C50.4467 357.802 50.6471 357.674 50.7414 357.475C50.7414 357.475 51.1539 356.611 51.5547 355.782C51.5547 357.767 51.5547 360.044 51.5547 360.044C51.5547 360.359 51.8022 360.604 52.1205 360.604C52.4269 360.604 52.6863 360.359 52.6863 360.044V353.272C52.6863 353.015 52.4977 352.782 52.2384 352.724C51.979 352.665 51.7197 352.794 51.6019 353.039C51.6019 353.039 50.7768 354.778 50.2346 355.922C49.6924 354.778 48.8555 353.039 48.8555 353.039C48.7494 352.794 48.4783 352.665 48.219 352.724C47.9597 352.782 47.7829 353.015 47.7829 353.272V360.044C47.7829 360.359 48.0304 360.604 48.3487 360.604V360.604Z" fill="white"/>
<path d="M54.4218 360.604C54.7401 360.604 54.9876 360.359 54.9876 360.044V353.272C54.9876 352.969 54.7401 352.712 54.4218 352.712C54.1154 352.712 53.8561 352.969 53.8561 353.272V360.044C53.8561 360.359 54.1154 360.604 54.4218 360.604Z" fill="white"/>
<path d="M56.0005 360.546C56.2834 360.686 56.6252 360.569 56.7666 360.301L58.0279 357.79L59.2891 360.301C59.4305 360.569 59.7723 360.686 60.0434 360.546C60.3263 360.406 60.4442 360.067 60.3027 359.799L58.6643 356.541L60.1849 353.529C60.3263 353.249 60.2084 352.91 59.9255 352.77C59.6544 352.63 59.3126 352.747 59.1712 353.027L58.0279 355.292L56.8845 353.027C56.7431 352.747 56.4013 352.63 56.1184 352.77C55.8473 352.91 55.7294 353.249 55.8708 353.529L57.3914 356.541L55.753 359.799C55.6115 360.067 55.7294 360.406 56.0005 360.546V360.546Z" fill="white"/>
<path d="M64.6015 360.534C65.4738 360.768 66.3814 360.394 66.8293 359.624C66.9943 359.355 66.9 359.016 66.6289 358.853C66.3578 358.701 66.016 358.795 65.851 359.063C65.6624 359.39 65.2734 359.553 64.8962 359.46C64.5308 359.355 64.2715 359.028 64.2715 358.643V354.673C64.2715 354.3 64.5308 353.961 64.8962 353.868C65.2734 353.763 65.6624 353.926 65.851 354.253C66.016 354.521 66.3578 354.615 66.6289 354.463C66.9 354.3 66.9943 353.961 66.8293 353.693C66.3814 352.922 65.4738 352.548 64.6015 352.782C63.7411 353.004 63.14 353.786 63.14 354.673V358.643C63.14 359.53 63.7411 360.312 64.6015 360.534V360.534Z" fill="white"/>
<path d="M69.2513 360.196C69.322 360.441 69.5459 360.604 69.8053 360.604C70.0528 360.604 70.2767 360.441 70.3475 360.196L72.2334 353.424C72.3159 353.12 72.1391 352.817 71.8326 352.735C71.5379 352.653 71.2197 352.829 71.1372 353.12C71.1372 353.12 70.3475 355.957 69.8053 357.942C69.2513 355.957 68.4615 353.12 68.4615 353.12C68.379 352.829 68.0608 352.653 67.7661 352.735C67.4596 352.817 67.2828 353.12 67.3654 353.424L69.2513 360.196Z" fill="white"/>
<path d="M80.149 101.16C79.8543 101.242 79.6657 101.545 79.7365 101.837L81.3866 108.609C81.4456 108.866 81.6813 109.041 81.9406 109.041C82.1999 109.041 82.4239 108.866 82.4828 108.609C82.4828 108.609 83.0957 106.099 83.5908 104.102C84.0741 106.099 84.687 108.609 84.687 108.609C84.7459 108.866 84.9817 109.041 85.241 109.041C85.5003 109.041 85.7242 108.866 85.7832 108.609L87.4333 101.837C87.5159 101.545 87.3272 101.242 87.0208 101.16C86.7143 101.09 86.4079 101.277 86.3371 101.58C86.3371 101.58 85.7242 104.09 85.241 106.087C84.7459 104.09 84.133 101.58 84.133 101.58C84.074 101.323 83.8501 101.148 83.5908 101.148C83.3315 101.148 83.0957 101.323 83.0368 101.58C83.0368 101.58 82.4239 104.09 81.9406 106.087C81.4456 104.09 80.8326 101.58 80.8326 101.58C80.7619 101.277 80.4555 101.09 80.149 101.16V101.16Z" fill="white"/>
<path d="M88.2582 101.755V108.434C88.2582 108.749 88.5175 108.994 88.824 108.994H91.1813C91.4996 108.994 91.7471 108.749 91.7471 108.434C91.7471 108.13 91.4996 107.873 91.1813 107.873H89.3897V105.538H90.9456C91.2639 105.538 91.5114 105.293 91.5114 104.978C91.5114 104.674 91.2639 104.417 90.9456 104.417H89.3897V102.316H91.1813C91.4996 102.316 91.7471 102.071 91.7471 101.755C91.7471 101.452 91.4996 101.195 91.1813 101.195H88.824C88.5175 101.195 88.2582 101.452 88.2582 101.755Z" fill="white"/>
<path d="M92.63 101.195C92.3235 101.195 92.0642 101.452 92.0642 101.755C92.0642 102.071 92.3235 102.316 92.63 102.316H93.5965V108.48C93.5965 108.796 93.8558 109.041 94.1623 109.041C94.4805 109.041 94.7281 108.796 94.7281 108.48V102.316H95.6946C96.0128 102.316 96.2604 102.071 96.2604 101.755C96.2604 101.452 96.0128 101.195 95.6946 101.195H92.63Z" fill="white"/>
<path d="M80.4842 114.862C80.2147 114.517 80.0019 114.138 79.86 113.723C79.7253 113.323 79.6543 112.901 79.6543 112.473C79.6543 112.044 79.7253 111.63 79.86 111.222C80.0019 110.808 80.2147 110.428 80.4842 110.084C80.6048 109.937 80.5764 109.726 80.4275 109.606C80.2785 109.494 80.0657 109.522 79.9522 109.663C79.633 110.07 79.3848 110.52 79.2145 111.005C79.0514 111.482 78.9734 111.974 78.9734 112.473C78.9734 112.972 79.0514 113.464 79.2145 113.941C79.3848 114.426 79.633 114.876 79.9522 115.283C80.0657 115.431 80.2785 115.452 80.4275 115.34C80.5764 115.22 80.6048 115.009 80.4842 114.862V114.862Z" fill="white"/>
<path d="M81.2665 114.848C81.4581 114.848 81.607 114.7 81.607 114.51V110.435C81.607 110.253 81.4581 110.098 81.2665 110.098C81.0821 110.098 80.9261 110.253 80.9261 110.435V114.51C80.9261 114.7 81.0821 114.848 81.2665 114.848Z" fill="white"/>
<path d="M84.7133 114.841C84.8623 114.805 84.9758 114.665 84.9758 114.51V110.435C84.9758 110.253 84.8197 110.098 84.6353 110.098C84.4438 110.098 84.2948 110.253 84.2948 110.435C84.2948 110.435 84.2948 111.834 84.2948 113.035C83.7061 111.827 82.9542 110.288 82.9542 110.288C82.8833 110.147 82.7273 110.07 82.5712 110.105C82.4152 110.14 82.3088 110.281 82.3088 110.435V114.51C82.3088 114.7 82.4577 114.848 82.6492 114.848C82.8337 114.848 82.9897 114.7 82.9897 114.51C82.9897 114.51 82.9897 113.112 82.9897 111.911C83.5784 113.119 84.3303 114.658 84.3303 114.658C84.3942 114.798 84.5573 114.876 84.7133 114.841V114.841Z" fill="white"/>
<path d="M87.6804 111.517C87.6804 111.517 87.8294 111.363 87.95 111.25C87.95 112.29 87.95 114.51 87.95 114.51C87.95 114.7 88.0989 114.848 88.2905 114.848C88.4749 114.848 88.6309 114.7 88.6309 114.51V110.435C88.6309 110.302 88.5458 110.175 88.4181 110.126C88.2905 110.07 88.1486 110.098 88.0493 110.197L87.1981 111.04C87.0633 111.173 87.0633 111.384 87.1981 111.517C87.3329 111.651 87.5457 111.651 87.6804 111.517V111.517Z" fill="white"/>
<path d="M91.8919 112.346H91.3812V111.841C91.3812 111.658 91.2251 111.503 91.0407 111.503C90.8492 111.503 90.7002 111.658 90.7002 111.841V112.346H90.1895C89.998 112.346 89.849 112.501 89.849 112.684C89.849 112.873 89.998 113.021 90.1895 113.021H90.7002V113.527C90.7002 113.716 90.8492 113.864 91.0407 113.864C91.2251 113.864 91.3812 113.716 91.3812 113.527V113.021H91.8919C92.0763 113.021 92.2323 112.873 92.2323 112.684C92.2323 112.501 92.0763 112.346 91.8919 112.346Z" fill="white"/>
<path d="M92.9681 111.152C93.1313 111.243 93.337 111.187 93.4292 111.026C93.5001 110.913 93.6065 110.829 93.7342 110.794C93.8689 110.759 94.0037 110.773 94.1243 110.836C94.2378 110.899 94.3229 111.004 94.3655 111.131C94.4009 111.257 94.3867 111.398 94.33 111.517L92.8333 114.328C92.7836 114.433 92.7836 114.553 92.8476 114.658C92.9114 114.756 93.0178 114.82 93.1384 114.82H94.7272C94.9117 114.82 95.0677 114.672 95.0677 114.482C95.0677 114.3 94.9117 114.145 94.7272 114.145C94.7272 114.145 94.1669 114.145 93.6987 114.145C94.0605 113.471 94.9329 111.827 94.9329 111.827C95.0748 111.553 95.1032 111.236 95.0181 110.941C94.9259 110.639 94.7273 110.393 94.4506 110.246C94.174 110.098 93.8548 110.056 93.5569 110.14C93.2519 110.225 92.9965 110.421 92.8405 110.688C92.7483 110.85 92.805 111.054 92.9681 111.152L92.9681 111.152Z" fill="white"/>
<path d="M97.0235 112.403C97.0235 111.904 96.9384 111.412 96.7752 110.934C96.6121 110.449 96.3638 110 96.0446 109.592C95.9311 109.452 95.7183 109.424 95.5694 109.536C95.4204 109.655 95.3921 109.866 95.5056 110.014C95.7822 110.358 95.995 110.737 96.1368 111.152C96.2716 111.559 96.3425 111.974 96.3425 112.403C96.3425 112.831 96.2716 113.253 96.1368 113.653C95.995 114.068 95.7822 114.447 95.5056 114.791C95.3921 114.939 95.4204 115.15 95.5694 115.269C95.7183 115.382 95.9311 115.36 96.0446 115.213C96.3638 114.805 96.6121 114.356 96.7752 113.871C96.9384 113.393 97.0235 112.901 97.0235 112.403V112.403Z" fill="white"/>
<path d="M19.5015 213.736V246.949Z" fill="white"/>
<path d="M19.5015 213.736V246.949" stroke="white" stroke-width="3.09395"/>
<path d="M56.96 263.291C56.6324 262.873 56.3737 262.412 56.2013 261.908C56.0374 261.421 55.9512 260.908 55.9512 260.387C55.9512 259.866 56.0374 259.363 56.2013 258.867C56.3737 258.363 56.6324 257.902 56.96 257.484C57.1066 257.304 57.0721 257.048 56.8911 256.903C56.71 256.766 56.4513 256.8 56.3133 256.971C55.9253 257.467 55.6236 258.013 55.4166 258.602C55.2183 259.183 55.1235 259.781 55.1235 260.387C55.1235 260.994 55.2183 261.592 55.4166 262.172C55.6236 262.762 55.9253 263.308 56.3133 263.804C56.4513 263.983 56.71 264.009 56.8911 263.872C57.0721 263.727 57.1066 263.471 56.96 263.291V263.291Z" fill="white"/>
<path d="M57.911 263.274C58.1438 263.274 58.3249 263.095 58.3249 262.864V257.911C58.3249 257.689 58.1438 257.501 57.911 257.501C57.6868 257.501 57.4971 257.689 57.4971 257.911V262.864C57.4971 263.095 57.6868 263.274 57.911 263.274Z" fill="white"/>
<path d="M62.1009 263.266C62.282 263.223 62.42 263.052 62.42 262.864V257.911C62.42 257.689 62.2303 257.501 62.0061 257.501C61.7733 257.501 61.5922 257.689 61.5922 257.911C61.5922 257.911 61.5922 259.61 61.5922 261.071C60.8765 259.602 59.9626 257.731 59.9626 257.731C59.8763 257.56 59.6866 257.467 59.497 257.509C59.3073 257.552 59.1779 257.723 59.1779 257.911V262.864C59.1779 263.095 59.359 263.274 59.5918 263.274C59.816 263.274 60.0057 263.095 60.0057 262.864C60.0057 262.864 60.0057 261.165 60.0057 259.704C60.7213 261.173 61.6353 263.044 61.6353 263.044C61.7129 263.214 61.9112 263.308 62.1009 263.266Z" fill="white"/>
<path d="M64.8013 260.302C64.8013 259.696 64.6978 259.098 64.4995 258.517C64.3012 257.928 63.9994 257.381 63.6114 256.886C63.4735 256.715 63.2148 256.681 63.0337 256.817C62.8526 256.963 62.8182 257.219 62.9561 257.398C63.2924 257.817 63.5511 258.278 63.7235 258.782C63.8873 259.277 63.9735 259.781 63.9735 260.302C63.9735 260.823 63.8873 261.335 63.7235 261.822C63.5511 262.326 63.2924 262.787 62.9561 263.206C62.8181 263.385 62.8526 263.641 63.0337 263.787C63.2148 263.923 63.4735 263.898 63.6114 263.718C63.9994 263.223 64.3012 262.676 64.4995 262.087C64.6978 261.506 64.8013 260.908 64.8013 260.302V260.302Z" fill="white"/>
<path d="M100.506 213.47V246.895Z" fill="white"/>
<path d="M100.506 213.47V246.895" stroke="white" stroke-width="3.09395"/>
<path d="M38.806 226.623C39.4515 226.991 39.6727 227.804 39.3001 228.441C38.9273 229.077 38.1017 229.295 37.4562 228.928C36.8106 228.56 36.5894 227.747 36.9622 227.11C37.3348 226.474 38.1604 226.256 38.806 226.623Z" fill="white"/>
<path d="M82.5434 226.623C83.189 226.991 83.4102 227.804 83.0375 228.441C82.6647 229.077 81.8392 229.295 81.1936 228.928C80.548 228.56 80.3268 227.747 80.6996 227.11C81.0723 226.474 81.8978 226.256 82.5434 226.623Z" fill="white"/>
<path d="M39.2256 232.07C39.9455 232.26 40.3728 232.989 40.18 233.699C39.987 234.409 39.2469 234.83 38.527 234.64C37.8069 234.45 37.3796 233.72 37.5726 233.01C37.7655 232.301 38.5056 231.88 39.2256 232.07" fill="white"/>
<path d="M81.4727 220.911C82.1926 221.101 82.6199 221.831 82.4271 222.541C82.2341 223.25 81.494 223.672 80.7741 223.481C80.054 223.291 79.6267 222.562 79.8197 221.852C80.0126 221.142 80.7527 220.721 81.4727 220.911Z" fill="white"/>
<path d="M41.061 237.223C41.8065 237.223 42.4109 237.819 42.411 238.554C42.4109 239.289 41.8065 239.885 41.061 239.885C40.3154 239.885 39.7109 239.289 39.711 238.554C39.7109 237.819 40.3154 237.223 41.061 237.223Z" fill="white"/>
<path d="M78.9387 215.666C79.6842 215.666 80.2887 216.262 80.2887 216.997C80.2887 217.732 79.6842 218.328 78.9387 218.328C78.1931 218.328 77.5887 217.732 77.5887 216.997C77.5887 216.262 78.1931 215.666 78.9387 215.666" fill="white"/>
<path d="M44.187 241.733C44.907 241.543 45.6471 241.964 45.84 242.674C46.0329 243.384 45.6056 244.113 44.8856 244.303C44.1656 244.494 43.4256 244.072 43.2327 243.363C43.0397 242.653 43.467 241.924 44.187 241.733Z" fill="white"/>
<path d="M75.114 211.248C75.834 211.057 76.5741 211.479 76.767 212.188C76.9599 212.898 76.5326 213.628 75.8127 213.818C75.0927 214.008 74.3526 213.587 74.1597 212.877C73.9667 212.167 74.394 211.438 75.114 211.248" fill="white"/>
<path d="M48.3906 245.292C49.0362 244.925 49.8617 245.143 50.2344 245.779C50.6072 246.415 50.3859 247.229 49.7404 247.596C49.0948 247.964 48.2693 247.746 47.8966 247.109C47.5238 246.473 47.745 245.659 48.3906 245.292Z" fill="white"/>
<path d="M70.2593 207.955C70.9049 207.587 71.7304 207.805 72.1031 208.442C72.4759 209.078 72.2546 209.892 71.6091 210.259C70.9635 210.627 70.138 210.409 69.7652 209.772C69.3925 209.136 69.6137 208.322 70.2593 207.955" fill="white"/>
<path d="M64.7053 206.012C65.2325 205.493 66.0873 205.493 66.6145 206.012C67.1417 206.532 67.1417 207.375 66.6145 207.894C66.0873 208.414 65.2325 208.414 64.7053 207.894C64.1781 207.375 64.1781 206.532 64.7053 206.012Z" fill="white"/>
<path d="M58.8308 205.554C59.2036 204.917 60.0291 204.699 60.6747 205.067C61.3203 205.434 61.5415 206.248 61.1687 206.884C60.796 207.52 59.9705 207.739 59.3249 207.371C58.6793 207.004 58.4581 206.19 58.8308 205.554Z" fill="white"/>
<path d="M53.0361 206.609C53.229 205.899 53.9691 205.478 54.689 205.668C55.4091 205.858 55.8364 206.588 55.6434 207.298C55.4505 208.007 54.7104 208.429 53.9904 208.238C53.2705 208.048 52.8432 207.319 53.0361 206.609" fill="white"/>
<path d="M69.5841 246.444C69.5841 245.709 70.1886 245.113 70.9341 245.113C71.6797 245.113 72.2842 245.709 72.2841 246.444C72.2841 247.179 71.6797 247.775 70.9341 247.775C70.1886 247.775 69.5841 247.179 69.5841 246.444" fill="white"/>
<path d="M47.7154 209.107C47.7154 208.372 48.3199 207.776 49.0654 207.776C49.811 207.776 50.4155 208.372 50.4154 209.107C50.4154 209.842 49.811 210.438 49.0654 210.438C48.3199 210.438 47.7154 209.842 47.7154 209.107Z" fill="white"/>
<path d="M74.1596 243.363C73.9667 242.653 74.394 241.924 75.114 241.733C75.834 241.543 76.5741 241.964 76.767 242.674C76.9599 243.384 76.5326 244.113 75.8126 244.303C75.0927 244.494 74.3526 244.072 74.1596 243.363Z" fill="white"/>
<path d="M43.2326 212.877C43.0397 212.167 43.467 211.438 44.1869 211.248C44.9069 211.057 45.6471 211.479 45.8399 212.188C46.0329 212.898 45.6056 213.628 44.8856 213.818C44.1656 214.008 43.4255 213.587 43.2326 212.877" fill="white"/>
<path d="M77.7697 239.219C77.397 238.583 77.6182 237.769 78.2637 237.402C78.9093 237.034 79.7349 237.252 80.1076 237.889C80.4803 238.525 80.2591 239.339 79.6135 239.706C78.968 240.074 78.1424 239.856 77.7697 239.219" fill="white"/>
<path d="M39.892 217.662C39.5193 217.026 39.7405 216.212 40.386 215.845C41.0316 215.478 41.8572 215.696 42.2299 216.332C42.6026 216.968 42.3814 217.782 41.7358 218.149C41.0903 218.517 40.2647 218.299 39.892 217.662" fill="white"/>
<path d="M80.1687 234.296C79.6416 233.776 79.6415 232.933 80.1687 232.414C80.6959 231.894 81.5508 231.894 82.0779 232.414C82.6051 232.933 82.6051 233.776 82.0779 234.296C81.5508 234.815 80.6959 234.815 80.1687 234.296Z" fill="white"/>
<path d="M37.9216 223.137C37.3944 222.617 37.3944 221.775 37.9216 221.255C38.4488 220.736 39.3037 220.736 39.8308 221.255C40.358 221.775 40.358 222.617 39.8308 223.137C39.3037 223.657 38.4488 223.657 37.9216 223.137Z" fill="white"/>
<path d="M18.9399 65.5465C19.6816 65.9686 19.9357 66.9036 19.5075 67.6347C19.0793 68.3659 18.1307 68.6164 17.3891 68.1943C16.6473 67.7722 16.3931 66.8372 16.8214 66.106C17.2496 65.3749 18.1981 65.1244 18.9399 65.5465" fill="white"/>
<path d="M102.838 65.5465C103.579 65.9686 103.834 66.9036 103.405 67.6347C102.977 68.3659 102.029 68.6164 101.287 68.1943C100.545 67.7722 100.291 66.8372 100.719 66.106C101.147 65.3749 102.096 65.1244 102.838 65.5465" fill="white"/>
<path d="M19.9953 76.0962C20.8224 76.3147 21.3133 77.1529 21.0918 77.9682C20.87 78.7837 20.0197 79.2677 19.1925 79.0491C18.3653 78.8307 17.8743 77.9925 18.096 77.177C18.3176 76.3616 19.168 75.8777 19.9953 76.0962" fill="white"/>
<path d="M101.034 54.6916C101.861 54.9101 102.352 55.7483 102.131 56.5637C101.909 57.3791 101.059 57.8631 100.232 57.6446C99.4043 57.4261 98.9134 56.5879 99.1351 55.7725C99.3567 54.9571 100.207 54.4731 101.034 54.6916" fill="white"/>
<path d="M23.7846 86.0166C24.6412 86.0166 25.3356 86.7012 25.3357 87.5455C25.3356 88.3899 24.6411 89.0745 23.7846 89.0745C22.9279 89.0745 22.2335 88.39 22.2335 87.5455C22.2335 86.7012 22.928 86.0166 23.7846 86.0166Z" fill="white"/>
<path d="M96.4423 44.6662C97.2988 44.6662 97.9933 45.3508 97.9933 46.1951C97.9933 47.0395 97.2988 47.7241 96.4422 47.7241C95.5856 47.7241 94.8911 47.0396 94.8912 46.1951C94.8911 45.3508 95.5856 44.6662 96.4423 44.6662" fill="white"/>
<path d="M30.0497 94.633C30.8769 94.4145 31.7272 94.8985 31.9489 95.7138C32.1706 96.5293 31.6796 97.3675 30.8524 97.586C30.0252 97.8045 29.1748 97.3206 28.9532 96.5051C28.7315 95.6897 29.2225 94.8515 30.0497 94.633Z" fill="white"/>
<path d="M89.3745 36.1547C90.2016 35.9362 91.052 36.4202 91.2737 37.2355C91.4953 38.051 91.0043 38.8892 90.1771 39.1077C89.3499 39.3262 88.4995 38.8422 88.2779 38.0268C88.0562 37.2114 88.5472 36.3732 89.3745 36.1547Z" fill="white"/>
<path d="M80.3125 29.7359C81.0542 29.3138 82.0027 29.5643 82.431 30.2954C82.8592 31.0266 82.605 31.9616 81.8633 32.3837C81.1216 32.8059 80.1731 32.5553 79.7448 31.8242C79.3166 31.0931 79.5707 30.1581 80.3125 29.7359" fill="white"/>
<path d="M69.8738 25.8478C70.4795 25.2508 71.4616 25.2508 72.0674 25.8478C72.6731 26.4449 72.6731 27.4131 72.0674 28.0101C71.4616 28.6072 70.4795 28.6072 69.8738 28.0101C69.2681 27.4131 69.2681 26.4449 69.8738 25.8478" fill="white"/>
<path d="M58.7703 24.7556C59.1986 24.0245 60.147 23.7739 60.8888 24.196C61.6305 24.6182 61.8847 25.5532 61.4564 26.2843C61.0282 27.0155 60.0797 27.266 59.3379 26.8438C58.5962 26.4217 58.3421 25.4867 58.7703 24.7556Z" fill="white"/>
<path d="M47.7583 26.5331C47.98 25.7178 48.8303 25.2338 49.6575 25.4522C50.4847 25.6708 50.9757 26.509 50.754 27.3244C50.5324 28.1398 49.682 28.6238 48.8548 28.4052C48.0276 28.1868 47.5366 27.3486 47.7583 26.5331" fill="white"/>
<path d="M37.5877 31.0598C37.5878 30.2154 38.2822 29.5309 39.1388 29.5308C39.9955 29.5309 40.69 30.2154 40.6899 31.0598C40.6899 31.9042 39.9955 32.5887 39.1388 32.5887C38.2823 32.5887 37.5878 31.9042 37.5877 31.0598Z" fill="white"/>
<path d="M88.2778 96.5051C88.0562 95.6897 88.5471 94.8515 89.3743 94.633C90.2016 94.4145 91.0519 94.8985 91.2735 95.7139C91.4952 96.5293 91.0043 97.3675 90.177 97.586C89.3498 97.8045 88.4995 97.3205 88.2778 96.5051" fill="white"/>
<path d="M28.9531 38.0267C28.7315 37.2114 29.2224 36.3732 30.0496 36.1546C30.8768 35.9362 31.7272 36.4201 31.9488 37.2355C32.1705 38.051 31.6795 38.8892 30.8523 39.1076C30.0251 39.3262 29.1748 38.8422 28.9531 38.0267Z" fill="white"/>
<path d="M95.0991 88.3099C94.6709 87.5788 94.925 86.6438 95.6667 86.2217C96.4085 85.7996 97.357 86.0501 97.7852 86.7813C98.2135 87.5124 97.9593 88.4474 97.2175 88.8695C96.4759 89.2916 95.5273 89.0411 95.0991 88.3099" fill="white"/>
<path d="M22.4414 46.9595C22.0132 46.2284 22.2674 45.2934 23.0091 44.8713C23.7508 44.4492 24.6994 44.6997 25.1275 45.4308C25.5558 46.162 25.3017 47.097 24.5599 47.5191C23.8182 47.9412 22.8697 47.6907 22.4414 46.9595Z" fill="white"/>
<path d="M99.536 78.6537C98.9304 78.0566 98.9304 77.0885 99.536 76.4914C100.142 75.8943 101.124 75.8943 101.73 76.4914C102.335 77.0885 102.335 78.0566 101.73 78.6537C101.124 79.2507 100.142 79.2507 99.536 78.6537Z" fill="white"/>
<path d="M18.497 57.2491C17.8913 56.652 17.8913 55.6839 18.497 55.0868C19.1027 54.4897 20.0849 54.4897 20.6905 55.0868C21.2963 55.6839 21.2963 56.652 20.6905 57.2491C20.0849 57.8462 19.1027 57.8462 18.497 57.2491Z" fill="white"/>
</g>
<defs>
<clipPath id="clip0">
<rect width="120" height="380" fill="white"/>
</clipPath>
</defs>
</svg>
